HIERARCHY
ROOT Hips
{
	OFFSET -3.958830 18.904000 13.208200
	CHANNELS 6 Xposition Yposition Zposition Zrotation Yrotation Xrotation 
	JOINT LHipJoint
	{
		OFFSET 0.000000 0.000000 0.000000
		CHANNELS 3 Zrotation Yrotation Xrotation
		JOINT LeftUpLeg
		{
			OFFSET 1.800000 -1.400000 0.085000
			CHANNELS 3 Zrotation Yrotation Xrotation
			JOINT LeftLeg
			{
				OFFSET 2.215000 -6.000000 0.000000
				CHANNELS 3 Zrotation Yrotation Xrotation
				JOINT LeftFoot
				{
					OFFSET 2.500000 -6.900000 0.000000
					CHANNELS 3 Zrotation Yrotation Xrotation
					JOINT LeftToeBase
					{
						OFFSET 0.200000 -0.500000 1.950000
						CHANNELS 3 Zrotation Yrotation Xrotation
						End Site
						{
							OFFSET 0.000000 0.000000 0.000000
						}
					}
				}
			}
		}
	}
	JOINT RHipJoint
	{
		OFFSET 0.000000 0.000000 0.000000
		CHANNELS 3 Zrotation Yrotation Xrotation
		JOINT RightUpLeg
		{
			OFFSET -1.800000 -1.400000 0.085000
			CHANNELS 3 Zrotation Yrotation Xrotation
			JOINT RightLeg
			{
				OFFSET -2.215000 -6.000000 0.000000
				CHANNELS 3 Zrotation Yrotation Xrotation
				JOINT RightFoot
				{
					OFFSET -2.500000 -6.900000 0.000000
					CHANNELS 3 Zrotation Yrotation Xrotation
					JOINT RightToeBase
					{
						OFFSET -0.200000 -0.500000 1.950000
						CHANNELS 3 Zrotation Yrotation Xrotation
						End Site
						{
							OFFSET 0.000000 0.000000 0.000000
						}
					}
				}
			}
		}
	}
	JOINT LowerBack
	{
		OFFSET 0.000000 0.000000 0.000000
		CHANNELS 3 Zrotation Yrotation Xrotation
		JOINT Spine
		{
			OFFSET -0.087000 1.940000 -0.288900
			CHANNELS 3 Zrotation Yrotation Xrotation
			JOINT Spine1
			{
				OFFSET 0.000000 1.950000 0.060000
				CHANNELS 3 Zrotation Yrotation Xrotation
				JOINT Neck
				{
					OFFSET 0.000000 0.000000 0.000000
					CHANNELS 3 Zrotation Yrotation Xrotation
					JOINT Neck1
					{
						OFFSET 0.000000 1.600000 0.340000
						CHANNELS 3 Zrotation Yrotation Xrotation
						JOINT Head
						{
							OFFSET 0.000000 1.667000 -0.240000
							CHANNELS 3 Zrotation Yrotation Xrotation
							End Site
							{
								OFFSET 0.000000 0.000000 0.000000
							}
						}
					}
				}
				JOINT LeftShoulder
				{
					OFFSET 0.000000 0.000000 0.000000
					CHANNELS 3 Zrotation Yrotation Xrotation
					JOINT LeftArm
					{
						OFFSET 2.700000 1.550000 -0.730000
						CHANNELS 3 Zrotation Yrotation Xrotation
						JOINT LeftForeArm
						{
							OFFSET 5.450000 0.000000 0.000000
							CHANNELS 3 Zrotation Yrotation Xrotation
							JOINT LeftHand
							{
								OFFSET 3.450000 0.000000 0.000000
								CHANNELS 3 Zrotation Yrotation Xrotation
								JOINT LeftHandIndex1
								{
									OFFSET 0.750000 0.000000 0.000000
									CHANNELS 3 Zrotation Yrotation Xrotation
									End Site
									{
										OFFSET 0.000000 0.000000 0.000000
									}
								}
							}
						}
					}
				}
				JOINT RightShoulder
				{
					OFFSET 0.000000 0.000000 0.000000
					CHANNELS 3 Zrotation Yrotation Xrotation
					JOINT RightArm
					{
						OFFSET -2.700000 1.550000 -0.730000
						CHANNELS 3 Zrotation Yrotation Xrotation
						JOINT RightForeArm
						{
							OFFSET -5.450000 0.000000 0.000000
							CHANNELS 3 Zrotation Yrotation Xrotation
							JOINT RightHand
							{
								OFFSET -3.450000 0.000000 0.000000
								CHANNELS 3 Zrotation Yrotation Xrotation
								JOINT RightHandIndex1
								{
									OFFSET -0.750000 0.000000 0.000000
									CHANNELS 3 Zrotation Yrotation Xrotation
									End Site
									{
										OFFSET 0.000000 0.000000 0.000000
									}
								}
							}
						}
					}
				}
			}
		}
	}
}
MOTION
Frames: 14
Frame Time: 0.016667
-0.475020 17.360300 -2.777220 7.015030 -15.224951 -24.409950 -15.458952 12.625699 4.960628 -11.626598 -6.960756 -49.330611 24.512137 -0.647381 31.885270 -0.228352 4.565360 2.589131 0.893870 0.692530 0.743070 18.015009 -10.218039 2.470318 -12.601405 0.976043 12.127750 12.909734 -9.028434 17.826449 -1.229540 -5.741457 2.291230 0.279070 -0.522970 0.099800 -2.760403 -2.953959 -8.407265 0.102426 4.151752 48.271407 -2.315449 7.482990 10.071764 3.698239 -9.657006 -14.686097 -25.999896 17.348514 61.445289 2.234070 -1.483600 -29.622300 -27.997828 -15.506726 4.534256 -48.133959 3.752624 -15.360737 -36.957420 -21.841569 0.261905 -2.880592 3.053719 0.883920 -0.613240 0.572810 0.080210 20.713712 31.048479 11.199969 35.116248 24.822261 -10.616749 -138.107179 59.863132 -137.949765 2.353755 -1.344547 0.121280 0.212240 -0.249670 -0.216620 
-0.472260 17.353760 -2.787730 7.922375 -16.736018 -25.079860 -15.510315 12.474381 5.213657 -9.732268 -7.119742 -54.097207 23.132341 -0.095873 37.245665 -0.120446 5.406398 2.278948 0.874280 0.668740 0.732210 18.006225 -10.134022 2.300830 -13.180464 1.414946 11.680132 12.230194 -9.068254 19.330251 -1.195409 -5.776191 2.279779 0.267040 -0.501940 0.108160 -2.677181 -2.961988 -8.484713 -1.089444 5.156639 49.026180 -1.857242 8.260964 10.072950 3.551336 -9.751306 -14.671235 -25.849314 17.014557 60.282154 1.805770 -1.511220 -28.990800 -27.454342 -15.478225 4.539733 -48.217776 3.730453 -15.522630 -38.570335 -22.074558 0.442612 -2.913237 3.069610 0.858320 -0.590370 0.553600 0.077760 20.389968 31.599674 11.219596 34.341739 25.339560 -10.503995 -139.088204 58.775409 -138.523652 2.338908 -1.375689 0.121620 0.205060 -0.242040 -0.210400 
-0.480090 17.338380 -2.792730 8.502388 -17.301456 -25.660474 -15.594459 12.383632 5.446038 -6.838501 -6.991676 -57.513752 18.546574 1.843631 43.853660 -0.028851 6.396226 1.912702 0.849900 0.636950 0.737140 17.966632 -9.990751 2.149812 -13.423599 1.718927 11.393998 11.712248 -9.100714 20.589189 -1.167562 -5.801060 2.270632 0.251690 -0.500840 0.110910 -2.503991 -3.176595 -8.581652 -2.749941 6.219216 49.735103 -1.084723 8.842384 10.344141 3.625258 -9.130962 -14.700605 -23.759385 15.862440 59.861747 0.734000 -1.077570 -28.571130 -27.260984 -16.279285 4.877498 -47.358488 4.262975 -15.910134 -41.030308 -22.388595 0.643237 -2.935730 3.082469 0.846440 -0.569720 0.537920 0.058380 20.025966 32.419769 11.318357 33.674634 25.849837 -10.248204 -140.695838 55.844321 -138.473613 2.314001 -1.388475 0.113330 0.190940 -0.230640 -0.225900 
-0.491040 17.331760 -2.803630 9.895637 -16.667077 -26.189951 -15.778302 12.133930 5.926116 -2.537782 -7.297153 -61.687222 11.081709 6.128097 52.639789 0.199424 8.155728 1.292363 0.829600 0.623520 0.732340 17.889400 -9.653514 1.857530 -14.311040 2.038135 11.013039 11.203281 -9.173093 21.916461 -1.140312 -5.835239 2.249645 0.242830 -0.505180 0.119790 -2.167661 -3.656262 -8.768958 -6.446161 8.028250 50.165906 1.081166 9.157357 11.024881 3.279051 -8.384233 -14.603342 -21.150792 14.559998 58.773255 -0.457710 -0.280990 -28.474360 -25.598423 -16.982890 5.555252 -47.064586 4.844789 -16.555189 -45.295877 -23.166533 1.144660 -2.970994 3.124883 0.828900 -0.548970 0.529420 0.045370 19.075173 33.179926 11.133478 33.094328 26.846129 -9.787745 -142.548279 52.793760 -138.754383 2.282893 -1.417691 0.114450 0.166310 -0.223500 -0.236040 
-0.491330 17.336930 -2.819380 12.262800 -16.061520 -26.579982 -16.043608 11.510160 6.833436 3.099327 -7.426403 -70.386614 4.602081 11.159939 59.164461 0.500530 10.117213 0.667091 0.804500 0.585680 0.735390 17.825358 -9.142625 1.389799 -16.254144 2.747571 10.178834 10.747488 -9.313566 23.636046 -1.080271 -5.917466 2.221339 0.234490 -0.477510 0.124230 -1.784213 -4.066391 -9.095975 -11.161109 10.603288 49.969382 3.900305 9.451212 11.545973 2.550623 -7.690937 -14.149073 -18.660798 12.843577 56.997272 -2.023900 0.344510 -27.009430 -24.338124 -17.314959 5.937596 -45.825109 4.974514 -16.156207 -50.262051 -22.447406 1.451127 -3.040995 3.162330 0.790330 -0.498890 0.490220 0.045200 19.261821 33.597360 10.775754 31.869497 27.647209 -9.261698 -143.752479 50.813659 -138.496169 2.248998 -1.468022 0.096370 0.151910 -0.224530 -0.249510 
-0.460420 17.336370 -2.820640 13.569231 -16.227984 -27.025412 -16.208295 10.982586 7.552317 7.023066 -7.136875 -78.119789 4.279291 12.815985 64.305544 0.701383 11.325134 0.299166 0.781260 0.558970 0.725590 17.829932 -8.793593 1.042085 -17.498639 3.295451 9.364680 10.294608 -9.439295 25.353945 -1.047851 -5.988696 2.186812 0.226790 -0.448040 0.135920 -1.627625 -4.202658 -9.363198 -13.411583 11.829954 50.729976 5.265000 9.256612 11.342482 1.979957 -7.559713 -13.876883 -18.311521 12.593294 55.379975 -2.062800 0.807290 -27.064230 -23.578406 -17.753125 6.237531 -45.595930 4.801842 -15.578079 -51.998309 -20.546639 0.835450 -3.098284 3.160282 0.780770 -0.469540 0.471970 0.034610 19.629702 33.874042 10.283269 30.885230 28.309346 -8.662834 -145.310261 49.536634 -139.083997 2.213548 -1.488042 0.083540 0.155120 -0.205130 -0.252390 
-0.424520 17.352560 -2.791800 14.477458 -16.749536 -27.844234 -16.269058 10.609132 7.961006 10.948437 -6.009156 -81.054925 1.767486 16.788341 71.912456 1.107387 13.105646 -0.203017 0.759600 0.529810 0.728410 17.859307 -8.636088 0.862184 -18.513682 3.528693 9.656216 9.920909 -9.456828 25.769390 -1.042104 -6.035948 2.164511 0.208020 -0.450440 0.129510 -1.631929 -4.069169 -9.563310 -13.982656 12.371416 52.017928 4.983269 9.398015 10.995091 1.956422 -7.298590 -14.203724 -18.088284 12.253265 55.496312 -1.752370 0.677410 -27.219730 -24.008053 -18.730179 6.669994 -44.191283 5.782460 -15.442103 -53.314580 -18.959482 0.108442 -3.096603 3.141525 0.787980 -0.473510 0.468400 0.012530 20.156435 34.522523 10.512890 30.415421 27.936508 -8.537289 -146.906130 47.438904 -139.916402 2.207117 -1.479348 0.076120 0.155640 -0.191090 -0.260460 
-0.399810 17.367330 -2.767130 14.801119 -17.254987 -28.225808 -16.290801 10.548984 8.054793 12.876773 -5.950169 -80.030474 0.516752 20.214643 78.863778 1.474338 14.571815 -0.586288 0.744240 0.517770 0.722290 17.860702 -8.591715 0.772364 -18.738728 3.258527 9.830683 9.217958 -9.311395 25.826854 -1.042264 -5.987902 2.171071 0.206800 -0.450980 0.127410 -1.608772 -4.118924 -9.619579 -14.448815 12.709234 52.759608 5.301921 9.529355 10.982199 1.701721 -7.170975 -14.315908 -18.133166 12.379590 55.881119 -1.385830 0.618010 -28.372200 -23.854717 -19.199857 6.849367 -42.821219 5.930525 -15.090020 -55.402048 -17.599330 -0.451532 -3.111218 3.115468 0.817500 -0.482080 0.478460 -0.007270 20.527914 34.766181 10.572326 30.400960 27.673869 -8.706974 -148.358286 46.816218 -142.117078 2.191016 -1.457696 0.059800 0.176170 -0.164380 -0.269600 
-0.369350 17.363310 -2.733940 14.779443 -18.073598 -28.253860 -16.242632 10.677955 7.901397 12.698468 -6.674597 -76.878320 1.467563 22.058621 85.140802 1.777934 15.604061 -0.843513 0.763580 0.540680 0.748810 17.868455 -8.713410 0.756725 -18.693708 3.036419 9.339839 8.551809 -9.227030 26.602323 -1.051319 -5.959972 2.162272 0.217890 -0.490000 0.133270 -1.657719 -4.041767 -9.571768 -14.016200 12.451765 52.956229 4.932252 9.613671 11.129113 1.705259 -6.986016 -14.494408 -17.776172 12.431527 56.501412 -1.942730 0.664550 -29.597010 -23.648476 -19.554401 6.905171 -41.337079 6.030282 -14.864455 -57.318161 -16.118184 -1.178232 -3.100664 3.117207 0.840870 -0.503050 0.504190 -0.026600 20.323981 34.932232 10.736837 31.383331 27.791678 -8.750439 -149.064735 46.108532 -143.533663 2.189237 -1.444842 0.069140 0.166520 -0.163910 -0.284030 
-0.339950 17.348930 -2.699640 14.749111 -20.218084 -28.089100 -16.157705 10.899251 7.632434 12.450370 -6.476613 -72.548477 3.184992 23.351085 90.544692 2.054545 16.381030 -0.998616 0.813220 0.583340 0.796980 17.892782 -8.922122 0.747852 -18.276594 2.719364 8.317859 7.142268 -8.746935 27.164292 -1.054075 -5.792372 2.208764 0.233420 -0.526370 0.145880 -1.745436 -3.881765 -9.469160 -13.433554 12.097818 52.616868 4.340556 9.887573 10.725395 1.614038 -7.161638 -14.496355 -18.498488 13.246725 56.972708 -2.459570 0.848420 -30.504930 -23.991860 -19.118789 6.735901 -40.275382 6.300051 -14.580326 -57.665478 -15.280314 -1.538894 -3.065682 3.126629 0.862300 -0.530580 0.541910 -0.012430 20.828067 34.483740 10.706078 32.682148 27.586726 -8.429720 -151.328970 47.307257 -148.856292 2.186862 -1.483477 0.089520 0.161060 -0.197440 -0.289020 
-0.300150 17.325010 -2.659130 14.214335 -22.683649 -27.588975 -16.006500 11.312183 7.147846 10.496547 -6.508296 -66.513221 5.183779 23.249180 93.643171 2.173395 16.718056 -1.069163 0.823130 0.597240 0.800610 17.928376 -9.270182 0.820743 -17.233509 2.464136 6.641370 5.504845 -8.151779 28.225920 -1.030638 -5.596854 2.269766 0.248110 -0.535870 0.138180 -1.898513 -3.680402 -9.261772 -11.916167 11.200822 52.326386 3.537612 10.032164 9.750571 1.431648 -7.521490 -14.268737 -19.697746 14.466382 57.208067 -2.417160 0.887770 -31.663260 -24.461560 -18.151361 6.294004 -39.413671 6.397072 -14.187422 -58.350668 -13.625632 -2.297389 -3.059670 3.103256 0.893270 -0.549170 0.557730 -0.014570 21.624844 33.463439 10.410799 34.268419 27.237202 -8.196989 -154.286199 49.719407 -155.681185 2.165883 -1.491504 0.077300 0.186220 -0.189300 -0.295100 
-0.253860 17.296720 -2.599830 12.755022 -26.008364 -26.647682 -15.808818 11.758199 6.572145 8.918731 -5.537652 -59.799000 6.649978 22.725019 94.673113 2.182367 16.742824 -1.086364 0.842790 0.594090 0.826000 17.992458 -9.666121 0.998051 -15.360376 2.334048 4.989952 4.127015 -7.535777 29.202832 -1.017288 -5.405974 2.328304 0.258720 -0.575870 0.122950 -2.138375 -3.339353 -9.033316 -8.739025 9.414058 52.007762 1.776149 10.104343 8.520691 1.734766 -8.117872 -14.482616 -22.061876 16.038962 58.055637 -3.329010 0.617540 -32.417340 -25.730336 -17.455938 5.913824 -39.194682 6.899782 -14.049477 -56.843562 -12.503278 -2.894153 -3.014508 3.070899 0.944460 -0.586560 0.571640 -0.023560 22.321331 32.728755 10.431752 36.288795 26.302886 -8.488533 -157.558901 52.861689 -163.258064 2.143362 -1.498688 0.057920 0.194760 -0.187290 -0.323160 
-0.207280 17.248590 -2.517770 10.461571 -28.561711 -24.713372 -15.594710 12.176637 5.982474 7.267458 -4.715382 -53.220731 7.508910 21.589680 93.495682 2.161135 16.441444 -1.016131 0.887820 0.631280 0.851630 18.069196 -10.060266 1.253227 -13.309431 2.486688 2.835370 3.704998 -7.275364 30.795837 -1.027409 -5.335816 2.340657 0.272200 -0.606870 0.128250 -2.462682 -2.919218 -8.779770 -4.357232 6.776243 51.001696 -0.117407 9.455622 7.315251 1.866244 -8.970261 -14.531297 -25.164903 17.933182 58.030618 -3.386540 0.172420 -32.378560 -26.582305 -16.393252 5.395466 -39.716359 6.646154 -13.556494 -54.474349 -10.567140 -3.651961 -2.975953 3.082885 0.949640 -0.616970 0.590580 -0.011850 22.913741 31.459064 10.249134 38.515318 25.094281 -8.512752 -162.553265 56.039061 -172.656331 2.135626 -1.527745 0.085500 0.180520 -0.211410 -0.315480 
-0.164020 17.198260 -2.418400 7.606091 -29.575991 -22.337430 -15.407732 12.631219 5.351506 5.461086 -4.334090 -45.814067 7.233376 19.951626 89.479756 2.035137 15.748634 -0.859666 0.935900 0.675730 0.876020 18.119032 -10.376621 1.573354 -11.599722 2.607029 1.453337 4.497523 -7.552246 31.846340 -1.080504 -5.389987 2.295994 0.284840 -0.638010 0.157510 -2.750425 -2.709223 -8.523125 0.193342 3.779414 49.454276 -1.797700 7.965654 6.562346 2.217336 -9.295942 -14.582224 -27.369580 19.657428 58.907473 -3.575630 0.002680 -32.073760 -27.918706 -16.060410 5.164049 -40.311410 6.238015 -12.892898 -50.752406 -8.840831 -4.150143 -2.935883 3.098836 0.958300 -0.642360 0.627030 0.003650 23.576401 30.166587 9.980221 40.444575 23.640134 -8.726205 -168.028468 58.879825 178.302366 2.131773 -1.533547 0.125000 0.155210 -0.234240 -0.302640 
